<svg width="24" height="24" viewBox="0 0 24 24" fill="none" xmlns="http://www.w3.org/2000/svg">
<g id="Bulleted List">
<path id="Vector" fill-rule="evenodd" clip-rule="evenodd" d="M6.25 7C6.25 7.33152 6.1183 7.64946 5.88388 7.88388C5.64946 8.1183 5.33152 8.25 5 8.25C4.66848 8.25 4.35054 8.1183 4.11612 7.88388C3.8817 7.64946 3.75 7.33152 3.75 7C3.75 6.66848 3.8817 6.35054 4.11612 6.11612C4.35054 5.8817 4.66848 5.75 5 5.75C5.33152 5.75 5.64946 5.8817 5.88388 6.11612C6.1183 6.35054 6.25 6.66848 6.25 7ZM9 6C8.73478 6 8.48043 6.10536 8.29289 6.29289C8.10536 6.48043 8 6.73478 8 7C8 7.26522 8.10536 7.51957 8.29289 7.70711C8.48043 7.89464 8.73478 8 9 8H19C19.2652 8 19.5196 7.89464 19.7071 7.70711C19.8946 7.51957 20 7.26522 20 7C20 6.73478 19.8946 6.48043 19.7071 6.29289C19.5196 6.10536 19.2652 6 19 6H9ZM9 11C8.73478 11 8.48043 11.1054 8.29289 11.2929C8.10536 11.4804 8 11.7348 8 12C8 12.2652 8.10536 12.5196 8.29289 12.7071C8.48043 12.8946 8.73478 13 9 13H19C19.2652 13 19.5196 12.8946 19.7071 12.7071C19.8946 12.5196 20 12.2652 20 12C20 11.7348 19.8946 11.4804 19.7071 11.2929C19.5196 11.1054 19.2652 11 19 11H9ZM9 16C8.73478 16 8.48043 16.1054 8.29289 16.2929C8.10536 16.4804 8 16.7348 8 17C8 17.2652 8.10536 17.5196 8.29289 17.7071C8.48043 17.8946 8.73478 18 9 18H19C19.2652 18 19.5196 17.8946 19.7071 17.7071C19.8946 17.5196 20 17.2652 20 17C20 16.7348 19.8946 16.4804 19.7071 16.2929C19.5196 16.1054 19.2652 16 19 16H9ZM5 13.25C5.33152 13.25 5.64946 13.1183 5.88388 12.8839C6.1183 12.6495 6.25 12.3315 6.25 12C6.25 11.6685 6.1183 11.3505 5.88388 11.1161C5.64946 10.8817 5.33152 10.75 5 10.75C4.66848 10.75 4.35054 10.8817 4.11612 11.1161C3.8817 11.3505 3.75 11.6685 3.75 12C3.75 12.3315 3.8817 12.6495 4.11612 12.8839C4.35054 13.1183 4.66848 13.25 5 13.25ZM5 18.25C5.33152 18.25 5.64946 18.1183 5.88388 17.8839C6.1183 17.6495 6.25 17.3315 6.25 17C6.25 16.6685 6.1183 16.3505 5.88388 16.1161C5.64946 15.8817 5.33152 15.75 5 15.75C4.66848 15.75 4.35054 15.8817 4.11612 16.1161C3.8817 16.3505 3.75 16.6685 3.75 17C3.75 17.3315 3.8817 17.6495 4.11612 17.8839C4.35054 18.1183 4.66848 18.25 5 18.25Z" fill="white"/>
</g>
</svg>
