<svg width="14" height="15" viewBox="0 0 14 15" fill="none" xmlns="http://www.w3.org/2000/svg">
<g id="Down Chevron">
<path id="Vector" fill-rule="evenodd" clip-rule="evenodd" d="M2.50363 5.33666C2.61302 5.2273 2.76138 5.16586 2.91606 5.16586C3.07075 5.16586 3.2191 5.2273 3.3285 5.33666L6.9996 9.00776L10.6707 5.33666C10.7245 5.28095 10.7889 5.2365 10.8601 5.20593C10.9312 5.17536 11.0078 5.15926 11.0852 5.15859C11.1627 5.15792 11.2395 5.17268 11.3112 5.20201C11.3829 5.23134 11.448 5.27466 11.5028 5.32943C11.5576 5.38421 11.6009 5.44934 11.6302 5.52103C11.6596 5.59273 11.6743 5.66954 11.6736 5.747C11.673 5.82446 11.6569 5.90101 11.6263 5.97218C11.5957 6.04335 11.5513 6.10772 11.4956 6.16154L7.41204 10.2451C7.30264 10.3544 7.15428 10.4159 6.9996 10.4159C6.84491 10.4159 6.69656 10.3544 6.58716 10.2451L2.50363 6.16154C2.39426 6.05214 2.33282 5.90379 2.33282 5.7491C2.33282 5.59441 2.39426 5.44606 2.50363 5.33666Z" fill="black"/>
</g>
</svg>
