<svg width="14" height="15" viewBox="0 0 14 15" fill="none" xmlns="http://www.w3.org/2000/svg">
<g id="Right Chevron">
<path id="Vector" fill-rule="evenodd" clip-rule="evenodd" d="M4.83706 3.00323C4.94646 2.89387 5.09481 2.83243 5.2495 2.83243C5.40418 2.83243 5.55254 2.89387 5.66193 3.00323L9.74547 7.08676C9.85483 7.19616 9.91627 7.34451 9.91627 7.4992C9.91627 7.65389 9.85483 7.80224 9.74547 7.91164L5.66193 11.9952C5.55191 12.1014 5.40455 12.1602 5.2516 12.1589C5.09864 12.1576 4.95233 12.0962 4.84417 11.9881C4.73601 11.8799 4.67465 11.7336 4.67333 11.5806C4.672 11.4277 4.7308 11.2803 4.83706 11.1703L8.50816 7.4992L4.83706 3.8281C4.7277 3.71871 4.66626 3.57035 4.66626 3.41567C4.66626 3.26098 4.7277 3.11263 4.83706 3.00323Z" fill="black"/>
</g>
</svg>
