<svg width="16" height="16" viewBox="0 0 16 16" fill="none" xmlns="http://www.w3.org/2000/svg">
<g id="Right Chevron">
<path id="Vector" fill-rule="evenodd" clip-rule="evenodd" d="M5.52919 2.86219C5.65421 2.73721 5.82376 2.66699 6.00054 2.66699C6.17733 2.66699 6.34687 2.73721 6.4719 2.86219L11.1388 7.52909C11.2638 7.65412 11.334 7.82366 11.334 8.00045C11.334 8.17723 11.2638 8.34678 11.1388 8.4718L6.4719 13.1387C6.34616 13.2601 6.17775 13.3273 6.00294 13.3258C5.82813 13.3243 5.66092 13.2542 5.53731 13.1306C5.41369 13.007 5.34358 12.8398 5.34206 12.6649C5.34054 12.4901 5.40774 12.3217 5.52919 12.196L9.72473 8.00045L5.52919 3.80491C5.4042 3.67988 5.33398 3.51033 5.33398 3.33355C5.33398 3.15676 5.4042 2.98722 5.52919 2.86219Z" fill="white"/>
</g>
</svg>
