<svg width="24" height="24" viewBox="0 0 24 24" fill="none" xmlns="http://www.w3.org/2000/svg">
<g id="Left Chevron">
<path id="Vector" fill-rule="evenodd" clip-rule="evenodd" d="M15.707 4.29303C15.8945 4.48056 15.9998 4.73487 15.9998 5.00003C15.9998 5.26519 15.8945 5.5195 15.707 5.70703L9.41403 12L15.707 18.293C15.8892 18.4816 15.99 18.7342 15.9877 18.9964C15.9854 19.2586 15.8803 19.5094 15.6948 19.6948C15.5094 19.8803 15.2586 19.9854 14.9964 19.9877C14.7342 19.99 14.4816 19.8892 14.293 19.707L7.29303 12.707C7.10556 12.5195 7.00024 12.2652 7.00024 12C7.00024 11.7349 7.10556 11.4806 7.29303 11.293L14.293 4.29303C14.4806 4.10556 14.7349 4.00024 15 4.00024C15.2652 4.00024 15.5195 4.10556 15.707 4.29303Z" fill="#BEBEBE"/>
</g>
</svg>
