<svg width="24" height="24" viewBox="0 0 24 24" fill="none" xmlns="http://www.w3.org/2000/svg">
<g id="Right Chevron">
<path id="Vector" fill-rule="evenodd" clip-rule="evenodd" d="M8.29303 4.29303C8.48056 4.10556 8.73487 4.00024 9.00003 4.00024C9.26519 4.00024 9.5195 4.10556 9.70703 4.29303L16.707 11.293C16.8945 11.4806 16.9998 11.7349 16.9998 12C16.9998 12.2652 16.8945 12.5195 16.707 12.707L9.70703 19.707C9.51843 19.8892 9.26583 19.99 9.00363 19.9877C8.74143 19.9854 8.49062 19.8803 8.30521 19.6948C8.1198 19.5094 8.01464 19.2586 8.01236 18.9964C8.01008 18.7342 8.11087 18.4816 8.29303 18.293L14.586 12L8.29303 5.70703C8.10556 5.5195 8.00024 5.26519 8.00024 5.00003C8.00024 4.73487 8.10556 4.48056 8.29303 4.29303Z" fill="#0487E2"/>
</g>
</svg>
