<svg width="16" height="16" viewBox="0 0 16 16" fill="none" xmlns="http://www.w3.org/2000/svg">
<g id="Right Chevron">
<path id="Vector" fill-rule="evenodd" clip-rule="evenodd" d="M5.52894 2.86219C5.65397 2.73721 5.82351 2.66699 6.0003 2.66699C6.17708 2.66699 6.34663 2.73721 6.47165 2.86219L11.1386 7.52909C11.2635 7.65412 11.3338 7.82366 11.3338 8.00045C11.3338 8.17723 11.2635 8.34678 11.1386 8.4718L6.47165 13.1387C6.34591 13.2601 6.1775 13.3273 6.0027 13.3258C5.82789 13.3243 5.66067 13.2542 5.53706 13.1306C5.41345 13.007 5.34333 12.8398 5.34182 12.6649C5.3403 12.4901 5.4075 12.3217 5.52894 12.196L9.72448 8.00045L5.52894 3.80491C5.40395 3.67988 5.33374 3.51033 5.33374 3.33355C5.33374 3.15676 5.40395 2.98722 5.52894 2.86219Z" fill="white"/>
</g>
</svg>
