<svg width="24" height="24" viewBox="0 0 24 24" fill="none" xmlns="http://www.w3.org/2000/svg">
<g id="Cart">
<path id="Vector" fill-rule="evenodd" clip-rule="evenodd" d="M2 2C1.73478 2 1.48043 2.10536 1.29289 2.29289C1.10536 2.48043 1 2.73478 1 3C1 3.26522 1.10536 3.51957 1.29289 3.70711C1.48043 3.89464 1.73478 4 2 4H2.472C2.69143 3.99996 2.90478 4.07208 3.07916 4.20527C3.25355 4.33845 3.37929 4.5253 3.437 4.737L3.853 6.263L6 14.133V16C6 16.694 6.235 17.332 6.63 17.84C6.34728 18.1587 6.15071 18.5444 6.05896 18.9605C5.9672 19.3766 5.98329 19.8092 6.10572 20.2173C6.22814 20.6253 6.45282 20.9954 6.75844 21.2922C7.06406 21.5891 7.44048 21.8029 7.85196 21.9134C8.26344 22.0239 8.69633 22.0274 9.10954 21.9235C9.52276 21.8197 9.90257 21.612 10.2129 21.3201C10.5233 21.0283 10.754 20.6619 10.883 20.2558C11.0119 19.8498 11.035 19.4175 10.95 19H14.05C13.9723 19.3817 13.9849 19.7763 14.0868 20.1523C14.1887 20.5283 14.3771 20.8753 14.6368 21.1656C14.8966 21.4559 15.2206 21.6814 15.583 21.8243C15.9454 21.9672 16.3362 22.0233 16.7242 21.9884C17.1122 21.9534 17.4866 21.8283 17.8177 21.6229C18.1487 21.4175 18.4272 21.1377 18.6308 20.8056C18.8345 20.4736 18.9578 20.0985 18.9908 19.7103C19.0238 19.3222 18.9657 18.9317 18.821 18.57C18.925 18.42 18.986 18.2445 18.9974 18.0623C19.0088 17.8801 18.9701 17.6983 18.8855 17.5366C18.8009 17.3749 18.6737 17.2394 18.5176 17.1448C18.3615 17.0502 18.1825 17.0001 18 17H9.001C8.73578 17 8.48143 16.8946 8.29389 16.7071C8.10636 16.5196 8.001 16.2652 8.001 16V15H18.237C18.6759 15.0001 19.1026 14.8558 19.4513 14.5895C19.8001 14.3231 20.0516 13.9494 20.167 13.526L21.802 7.526C21.8829 7.22912 21.8943 6.91757 21.8351 6.6156C21.776 6.31363 21.648 6.02937 21.461 5.78496C21.2741 5.54054 21.0333 5.34256 20.7573 5.20641C20.4814 5.07027 20.1777 4.99963 19.87 5H5.582L5.367 4.21C5.19369 3.57508 4.81639 3.01477 4.29325 2.61541C3.77011 2.21605 3.13015 1.99981 2.472 2H2ZM16.5 19C16.3674 19 16.2402 19.0527 16.1464 19.1464C16.0527 19.2402 16 19.3674 16 19.5C16 19.6326 16.0527 19.7598 16.1464 19.8536C16.2402 19.9473 16.3674 20 16.5 20C16.6326 20 16.7598 19.9473 16.8536 19.8536C16.9473 19.7598 17 19.6326 17 19.5C17 19.3674 16.9473 19.2402 16.8536 19.1464C16.7598 19.0527 16.6326 19 16.5 19ZM18.236 13H7.764L6.127 7H19.871L18.236 13ZM8.5 19C8.36739 19 8.24021 19.0527 8.14645 19.1464C8.05268 19.2402 8 19.3674 8 19.5C8 19.6326 8.05268 19.7598 8.14645 19.8536C8.24021 19.9473 8.36739 20 8.5 20C8.63261 20 8.75979 19.9473 8.85355 19.8536C8.94732 19.7598 9 19.6326 9 19.5C9 19.3674 8.94732 19.2402 8.85355 19.1464C8.75979 19.0527 8.63261 19 8.5 19Z" fill="#0487E2"/>
</g>
</svg>
